# xmcd
#
# Track frame offsets:
#	150
#	1358
#	20830
#	39224
#	56601
#	72617
#	88650
#	103470
#	118220
#	137214
#	156053
#	171851
#	185430
#	203137
#	225995
#	246433
#	262940
#	273250
#	290827
#
# Disc length: 4093 seconds
#
# Revision: 2
# Processed by: cddbd v1.5.2PL0 Copyright (c) Steve Scherf et al.
# Submitted via: audiograbber 1.83.01
#
DISCID=1a0ffb13
DTITLE=Power Aerobic - Chart Hits Spring06
DYEAR=2006
DGENRE=Aerobic - Tae Bo
TTITLE0=Intro
TTITLE1=ATB - Reworked - 133bpm
TTITLE2=Tokyo Speed feat. Tara Rocks - Canyou feel it - 133bpm
TTITLE3=Wild and Pain - Your Heart keeps burning - 134bpm
TTITLE4=Lasgo - Lying - 135bpm
TTITLE5=Joyce - Game of love - 135bpm
TTITLE6=Dancefloor Saints - 10 'o clock postman - 136bpm
TTITLE7=Nation Grooves feat. Laine - Walking in the rain - 136bpm
TTITLE8=Novaspace - Wicked Game - 137bpm
TTITLE9=Resource - (I just) died in your arms - 137bpm
TTITLE10=Pulsedriver - Don't give me your life - 138bpm
TTITLE11=E-Love - Here comes the rain again - 138bpm
TTITLE12=DHT feat. Edmée - Listen to your heart - 139bpm
TTITLE13=Love to Infinity feat. Charlotte Day - Finally - 139bpm
TTITLE14=DJ Shog - Jealousy - 139bpm
TTITLE15=DJ Manian - Heat of the moment V1 - 139bpm
TTITLE16=DJ Manian - Heat of the moment V2 - 139bpm
TTITLE17=Sugababes - Ugly - 118bpm
TTITLE18=Pussycat Dolls - Stick with U - 0bpm
EXTD=
EXTT0=
EXTT1=
EXTT2=
EXTT3=
EXTT4=
EXTT5=
EXTT6=
EXTT7=
EXTT8=
EXTT9=
EXTT10=
EXTT11=
EXTT12=
EXTT13=
EXTT14=
EXTT15=
EXTT16=
EXTT17=
EXTT18=
PLAYORDER=
